<svg width="580" height="467" viewBox="0 0 580 467" fill="none" xmlns="http://www.w3.org/2000/svg">
<path d="M240 40.6533C240.99 40.9833 241.98 41.3133 243 41.6533C244.259 44.2454 244.259 44.2454 245.48 47.6572C245.922 48.8722 246.363 50.0871 246.818 51.3389C247.275 52.6311 247.731 53.9234 248.188 55.2158C248.655 56.5124 249.123 57.8087 249.592 59.1045C250.738 62.2839 251.874 65.4667 253 68.6533C254.267 68.3762 255.534 68.099 256.84 67.8135C258.539 67.4474 260.238 67.0815 261.938 66.7158C262.768 66.5334 263.599 66.351 264.455 66.1631C274.925 63.9225 285.042 63.4928 295.723 63.5229C298.023 63.5284 300.322 63.5229 302.621 63.5166C304.081 63.5173 305.54 63.5185 307 63.5205C307.688 63.5185 308.377 63.5165 309.086 63.5144C313.885 63.5383 313.885 63.5383 315 64.6533C316.788 64.9317 318.578 65.2046 320.371 65.4514C352.072 69.9243 378.84 85.0276 402 106.653C402.877 107.453 403.753 108.252 404.656 109.075C412.732 116.733 418.913 125.378 425 134.653C425.67 135.673 426.341 136.693 427.031 137.743C440.81 160.071 449.141 187.376 448 213.653C431.135 219.297 414.2 224.297 397.006 228.853C385.733 231.856 374.516 235.066 363.303 238.285C358.513 239.658 353.719 241.013 348.918 242.345C336.582 245.766 324.312 249.345 312.074 253.103C305.742 255.045 299.38 256.874 293 258.653C289.994 259.492 286.989 260.331 283.983 261.171C281.793 261.782 279.602 262.392 277.411 262.999C272.538 264.355 267.68 265.731 262.855 267.251C262.09 267.49 261.324 267.728 260.534 267.974C259.149 268.41 257.767 268.857 256.389 269.319C251.916 270.72 248.548 270.758 244 269.653C241.742 268.384 241.742 268.384 239.875 266.841C239.254 266.339 238.632 265.838 237.992 265.321C237.335 264.771 236.677 264.22 236 263.653C234.768 262.727 234.768 262.727 233.512 261.782C223.613 253.392 217.216 240.034 215.562 227.278C216.137 223.831 217.352 222.885 220 220.653C222.476 219.668 222.476 219.668 225.27 218.978C226.31 218.711 227.351 218.444 228.424 218.17C230.101 217.759 230.101 217.759 231.812 217.341C234.196 216.729 236.579 216.115 238.961 215.497C240.154 215.189 241.348 214.881 242.577 214.563C247.404 213.28 252.17 211.829 256.938 210.341C271.043 205.967 285.257 201.976 299.462 197.942C300.975 197.513 302.487 197.083 304 196.653C305.174 196.32 305.174 196.32 306.371 195.98C317.01 192.956 327.635 189.889 338.25 186.786C341.675 185.788 345.101 184.79 348.526 183.792C350.871 183.108 353.216 182.421 355.56 181.732C358.996 180.723 362.435 179.723 365.875 178.724C367.444 178.26 367.444 178.26 369.044 177.786C370.503 177.365 370.503 177.365 371.992 176.935C372.842 176.687 373.691 176.438 374.566 176.182C377.115 175.628 379.4 175.558 382 175.653C370.514 150.249 350.976 134.514 325.562 124.341C300.939 116.096 274.507 117.985 251.25 129.528C226.327 142.647 209.151 163.993 200.582 190.635C198.221 198.827 197.714 206.589 197.812 215.091C197.813 216.146 197.814 217.201 197.814 218.288C197.982 248.561 209.879 272.495 231.027 293.685C243.694 305.467 260.159 312.54 277 315.653C277.906 315.836 278.812 316.019 279.746 316.208C306.177 319.825 332.594 313.695 354.094 297.95C359.744 293.485 365.306 288.929 369.812 283.278C373.057 279.385 375.495 277.802 380.603 277.297C381.99 277.291 383.378 277.301 384.766 277.325C385.517 277.327 386.269 277.329 387.043 277.331C388.637 277.338 390.231 277.351 391.824 277.372C394.201 277.403 396.576 277.413 398.953 277.419C406.803 277.458 414.644 277.655 422.484 278.044C423.198 278.074 423.911 278.104 424.646 278.134C428.246 278.339 429.926 278.604 433 280.653C432.543 286.224 430.987 290.155 428 294.903C427.598 295.555 427.197 296.207 426.783 296.879C423.003 302.887 418.69 308.327 414 313.653C413.269 314.505 412.538 315.357 411.785 316.235C400.629 328.999 387.455 338.812 373.339 348.04C360.577 356.384 348.446 365.482 338 376.653C333 381.653 333 381.653 331.34 383.173C312.803 400.644 301.129 424.667 291 447.653C288.863 444.959 287.277 442.366 285.871 439.231C285.481 438.379 285.092 437.526 284.69 436.648C284.277 435.742 283.863 434.837 283.438 433.903C272.714 410.978 257.863 391.488 240 373.653C239.279 372.898 238.559 372.143 237.816 371.364C231.631 364.954 224.975 359.566 217.936 354.157C211.864 349.441 205.935 344.54 200 339.653C199.242 339.031 198.484 338.408 197.703 337.767C187.96 329.502 178.252 320.2 171 309.653C170.42 308.83 170.42 308.83 169.828 307.991C158.79 292.229 149.088 274.578 145 255.653C144.63 254.236 144.259 252.82 143.887 251.403C138.002 227.258 138.624 199.337 146 175.653C146.246 174.842 146.493 174.031 146.747 173.196C152.156 155.901 160.516 138.73 172 124.653C172.764 123.701 173.529 122.748 174.316 121.767C176.523 119.044 178.753 116.344 181 113.653C181.923 112.545 182.846 111.437 183.77 110.329C184.874 109.005 184.874 109.005 186 107.653C170.341 108.517 155.234 109.831 140 113.653C137.137 107.707 134.9 101.655 132.812 95.4033C132.42 94.2328 132.42 94.2328 132.019 93.0386C130.772 89.2526 129.764 85.5696 129 81.6533C130.154 81.6424 130.154 81.6424 131.331 81.6312C138.614 81.5552 145.895 81.4412 153.176 81.2855C156.919 81.2068 160.661 81.1423 164.405 81.1113C168.024 81.0808 171.641 81.0117 175.259 80.9167C176.633 80.8872 178.007 80.8712 179.381 80.8696C186.549 80.8518 191.694 80.6332 197.205 75.7478C198.486 74.3977 199.752 73.0341 201 71.6533C202.106 70.7187 203.229 69.8024 204.379 68.9229C204.899 68.5191 205.42 68.1153 205.956 67.6992C206.751 67.0887 206.751 67.0887 207.562 66.4658C212.869 62.3453 218.107 58.1507 223.312 53.9033C224.656 52.812 226 51.7208 227.344 50.6299C229.542 48.8446 231.728 47.0486 233.906 45.2393C234.7 44.5921 235.494 43.945 236.312 43.2783C236.969 42.7343 237.625 42.1904 238.301 41.6299C238.862 41.3076 239.422 40.9854 240 40.6533Z" fill="#00B16A"/>
<path d="M510 252.653C510.265 253.169 510.53 253.685 510.803 254.216C516.037 264.368 521.384 274.43 527.062 284.341C533.465 295.53 539.488 306.908 545.469 318.326C549.457 325.928 553.538 333.462 557.769 340.932C561.151 346.903 564.434 352.924 567.688 358.966C568.754 360.941 569.82 362.916 570.887 364.892C571.396 365.839 571.906 366.786 572.431 367.761C573.519 369.767 574.619 371.766 575.729 373.76C576.279 374.75 576.828 375.739 577.395 376.759C577.894 377.651 578.394 378.543 578.909 379.463C580 381.653 580 381.653 580 383.653C568.45 383.653 556.9 383.653 545 383.653C549.755 392.509 549.755 392.509 554.513 401.362C564 419.051 564 419.051 564 421.653C559.35 421.736 554.972 421.465 550.375 420.778C533.07 418.37 515.908 417.241 498.438 417.278C497.424 417.279 496.41 417.28 495.366 417.281C456.692 417.39 419.047 423.575 382 434.653C380.861 434.99 380.861 434.99 379.698 435.333C372.519 437.464 365.494 439.802 358.553 442.618C356.159 443.589 353.758 444.537 351.352 445.478C342.443 448.98 333.615 452.623 324.875 456.528C323.587 457.1 323.587 457.1 322.272 457.683C321.082 458.222 321.082 458.222 319.867 458.771C319.167 459.086 318.467 459.402 317.746 459.727C315.816 460.641 315.816 460.641 314 462.653C312.479 463.252 310.934 463.788 309.375 464.278C308.558 464.539 307.74 464.799 306.898 465.067C306.272 465.261 305.645 465.454 305 465.653C307.612 460.549 311.464 456.885 315.5 452.903C316.222 452.188 316.944 451.473 317.688 450.736C323.195 445.334 328.878 440.352 335 435.653C336.262 434.652 337.524 433.649 338.785 432.646C392.671 390.158 465.099 363.387 534 365.653C528.394 354.893 522.788 344.133 517.125 333.403C513.796 327.095 510.503 320.769 507.228 314.433C501.003 302.391 494.714 290.385 488.375 278.403C487.985 277.666 487.596 276.929 487.195 276.169C486.076 274.054 484.956 271.939 483.836 269.825C483.507 269.203 483.179 268.581 482.84 267.941C481.207 264.865 479.524 261.832 477.76 258.83C476 255.653 476 255.653 476 253.653C487.354 252.703 498.611 252.543 510 252.653Z" fill="#142437"/>
<path d="M73.8257 252.41C75.5942 252.416 75.5942 252.416 77.3984 252.423C78.6823 252.425 79.9662 252.426 81.2891 252.428C81.9597 252.435 82.6303 252.441 83.3213 252.447C85.3602 252.465 87.3986 252.468 89.4375 252.468C100.324 252.517 100.324 252.517 104 253.653C102.182 258.534 99.8365 263.131 97.5 267.778C97.0564 268.663 96.6128 269.547 96.1558 270.458C91.9835 278.745 87.6643 286.95 83.3228 295.149C70.9801 318.517 58.6848 341.947 47 365.653C48.4193 365.618 48.4193 365.618 49.8672 365.583C60.3899 365.408 70.5746 366.29 81 367.653C82.1009 367.786 83.2017 367.919 84.3359 368.055C87.9034 368.518 91.4512 369.067 95 369.653C95.8806 369.796 96.7612 369.938 97.6685 370.085C115.644 373.061 132.746 377.837 150 383.653C150.903 383.955 151.807 384.256 152.737 384.567C188.221 396.559 222.314 415.439 250.43 440.272C251.557 441.263 252.691 442.244 253.832 443.219C259.133 447.776 264.086 452.621 269 457.591C269.775 458.37 270.549 459.149 271.348 459.952C273.234 461.85 275.118 463.75 277 465.653C276.34 465.983 275.68 466.313 275 466.653C273.109 465.903 273.109 465.903 270.75 464.653C269.416 463.961 269.416 463.961 268.055 463.255C267.047 462.726 266.039 462.198 265 461.653C255.187 456.549 255.187 456.549 244.957 452.384C242.573 451.494 240.304 450.422 238 449.341C212.35 437.625 184.658 429.774 157 424.653C155.468 424.364 155.468 424.364 153.906 424.069C146.958 422.773 139.994 421.666 133 420.653C132.009 420.502 131.017 420.351 129.996 420.196C113.668 417.782 97.4743 417.365 81 417.341C80.0087 417.337 79.0174 417.333 77.9961 417.33C65.2625 417.305 52.778 417.949 40.1296 419.412C37.1683 419.747 34.2026 420.02 31.2344 420.286C30.3062 420.37 29.3781 420.453 28.4219 420.54C27.5402 420.618 26.6584 420.697 25.75 420.778C24.3114 420.908 24.3114 420.908 22.8438 421.04C20.5626 421.245 18.2813 421.45 16 421.653C18.0592 416.707 20.3179 411.938 22.793 407.188C23.1045 406.586 23.416 405.984 23.7369 405.363C24.8845 403.146 26.0362 400.931 27.1875 398.716C29.7656 393.745 32.3438 388.774 35 383.653C23.45 383.653 11.9 383.653 0 383.653C1.62879 379.581 3.43099 375.789 5.49219 371.938C6.005 370.973 6.005 370.973 6.52817 369.989C7.64108 367.896 8.75788 365.806 9.875 363.716C10.6508 362.26 11.4265 360.804 12.2021 359.348C17.4488 349.511 22.7523 339.706 28.1133 329.93C30.1462 326.222 32.1623 322.505 34.168 318.782C40.0463 307.872 46.026 297.036 52.1709 286.274C56.7324 278.236 61.0219 270.069 65.219 261.836C65.6868 260.924 66.1547 260.011 66.6367 259.071C67.251 257.861 67.251 257.861 67.8777 256.626C69.5825 253.629 70.3126 252.712 73.8257 252.41Z" fill="#142437"/>
<path d="M174.146 0.0853582C175.259 0.0846281 176.372 0.0838979 177.518 0.0831457C181.187 0.0866221 184.855 0.125489 188.523 0.164704C191.071 0.174032 193.618 0.181148 196.165 0.186143C202.179 0.203266 208.192 0.24265 214.206 0.29289C221.055 0.348861 227.903 0.376289 234.752 0.401367C248.835 0.453569 262.918 0.541463 277 0.652985C274.175 3.49469 271.382 6.27307 268.285 8.81705C267.266 9.65587 267.266 9.65587 266.227 10.5116C265.156 11.386 265.156 11.386 264.062 12.278C263.315 12.8912 262.567 13.5044 261.796 14.1361C256.543 18.4304 251.234 22.6491 245.885 26.8239C241.527 30.2268 237.236 33.7036 232.965 37.2155C211.125 55.1706 211.125 55.1706 201.881 62.0927C199.876 63.688 199.876 63.688 197.867 65.9457C190.426 73.3414 183.939 73.7937 173.956 73.7997C172.033 73.7726 170.11 73.7445 168.188 73.7155C166.202 73.7179 164.216 73.7244 162.23 73.7348C158.166 73.7484 154.103 73.7359 150.039 73.6999C144.224 73.6485 138.409 73.6581 132.594 73.6842C123.729 73.7183 114.865 73.7037 106 73.653C106 72.993 106 72.333 106 71.653C107.836 70.3913 107.836 70.3913 110.375 68.9655C114.936 66.3218 119.234 63.4538 123.527 60.3991C127.298 57.7364 131.147 55.1939 135 52.653C129.856 54.3676 125.424 57.5251 120.812 60.3405C119.796 60.9534 118.78 61.5664 117.732 62.1979C113.229 64.9392 109.038 67.5705 105.105 71.0866C99.8722 75.1285 93.8118 74.2985 87.5 74.028C86.296 74.0009 85.092 73.9738 83.8516 73.946C80.8992 73.8757 77.9505 73.7773 75 73.653C78.4908 70.079 82.1111 66.7426 85.9375 63.528C86.4989 63.0543 87.0603 62.5805 87.6387 62.0924C92.2629 58.2159 96.9949 54.4889 101.759 50.786C106.405 47.1597 110.911 43.389 115.393 39.5627C119.273 36.2543 123.217 33.0439 127.211 29.8756C143.98 17.1705 143.98 17.1705 159.455 3.06346C163.847 -0.562632 168.694 -0.00848652 174.146 0.0853582Z" fill="#142437"/>
<path d="M83 328.653C122.489 326.084 170.015 348.38 202 369.653C202.624 370.067 203.248 370.482 203.891 370.909C213.174 377.153 221.643 384.232 230 391.653C230.518 392.107 231.035 392.562 231.568 393.03C237.504 398.244 242.968 403.567 248 409.653C248.793 410.581 249.586 411.509 250.402 412.465C255.641 418.622 260.508 424.929 265 431.653C264.67 432.313 264.34 432.973 264 433.653C263.27 433.01 262.541 432.366 261.789 431.704C246.961 418.801 230.83 407.773 214 397.653C212.919 397.002 212.919 397.002 211.815 396.337C175.32 374.627 133.748 362.014 92 355.653C91.0061 355.5 90.0123 355.348 88.9883 355.191C83.3283 354.326 77.6657 353.48 72 352.653C72.5842 349.039 73.5548 346.228 75.2852 343.008C75.9571 341.747 75.9571 341.747 76.6426 340.46C77.1112 339.595 77.5797 338.731 78.0625 337.84C78.5349 336.957 79.0074 336.073 79.4941 335.163C80.657 332.99 81.8258 330.82 83 328.653Z" fill="#00B16A"/>
<path d="M240 40.6533C240.99 40.9833 241.98 41.3133 243 41.6533C244.259 44.2136 244.259 44.2136 245.48 47.5869C245.922 48.7928 246.363 49.9987 246.818 51.2412C247.043 51.8726 247.267 52.504 247.499 53.1545C248.185 55.0836 248.887 57.0064 249.592 58.9287C253 68.3301 253 68.3301 253 70.6533C252.187 71.031 251.373 71.4087 250.535 71.7979C233.563 79.9497 211.651 91.6769 201 107.653C198.412 108.054 198.412 108.054 195.129 108.095C193.321 108.132 193.321 108.132 191.477 108.17C190.185 108.185 188.893 108.2 187.562 108.216C171.352 108.592 155.709 109.423 140 113.653C137.137 107.707 134.9 101.655 132.812 95.4033C132.42 94.2328 132.42 94.2328 132.019 93.0386C130.772 89.2526 129.764 85.5696 129 81.6533C130.154 81.6424 130.154 81.6424 131.331 81.6312C138.614 81.5552 145.895 81.4412 153.176 81.2855C156.919 81.2068 160.661 81.1423 164.405 81.1113C168.024 81.0808 171.641 81.0117 175.259 80.9167C176.633 80.8872 178.007 80.8712 179.381 80.8696C186.549 80.8518 191.694 80.6332 197.205 75.7478C198.486 74.3977 199.752 73.0341 201 71.6533C202.106 70.7187 203.229 69.8024 204.379 68.9229C204.899 68.5191 205.42 68.1153 205.956 67.6992C206.751 67.0887 206.751 67.0887 207.562 66.4658C212.869 62.3453 218.107 58.1507 223.312 53.9033C224.656 52.812 226 51.7208 227.344 50.6299C229.542 48.8446 231.728 47.0486 233.906 45.2393C234.7 44.5921 235.494 43.945 236.312 43.2783C236.969 42.7343 237.625 42.1904 238.301 41.6299C238.862 41.3076 239.422 40.9854 240 40.6533Z" fill="#152537"/>
<path d="M135 50.6533C135 51.6433 135 52.6333 135 53.6533C132.74 55.377 130.525 56.8979 128.125 58.4033C126.745 59.2915 125.366 60.1808 123.988 61.0713C123.308 61.5075 122.629 61.9437 121.928 62.3931C118.55 64.6007 115.303 66.9888 112.051 69.376C109.988 70.6607 108.347 71.1264 106 71.6533C105.852 77.8279 105.743 84.0015 105.67 90.1775C105.64 92.2776 105.599 94.3776 105.547 96.4773C105.474 99.4985 105.441 102.518 105.414 105.54C105.383 106.477 105.352 107.413 105.32 108.378C105.215 113.191 105.215 113.191 107.341 117.32C109.147 118.85 109.147 118.85 112 120.653C113.433 123.519 113.306 125.466 113 128.653C112.31 129.522 111.621 130.391 110.91 131.286C108.29 135.904 109.075 138.744 110.125 143.778C110.279 144.617 110.433 145.456 110.591 146.32C110.9 147.996 111.218 149.671 111.546 151.343C112.142 154.376 112.671 157.418 113.188 160.466C113.346 161.339 113.505 162.211 113.668 163.11C114.043 165.98 114.055 168.762 114 171.653C112.02 172.643 112.02 172.643 110 173.653C109.34 172.003 108.68 170.353 108 168.653C107.856 169.788 107.711 170.922 107.562 172.091C107 175.653 107 175.653 106 176.653C103.47 176.726 100.967 176.746 98.4375 176.716C97.7266 176.711 97.0157 176.707 96.2832 176.702C94.5221 176.69 92.761 176.672 91 176.653C90.6511 169.245 91.9745 162.349 93.375 155.091C93.7076 153.301 93.7076 153.301 94.0469 151.476C95.1237 145.778 96.2609 140.187 98 134.653C96.515 134.158 96.515 134.158 95 133.653C92.9138 130.524 92.6325 129.41 92.5 125.778C92.4227 124.514 92.4227 124.514 92.3438 123.224C93 120.653 93 120.653 95.9907 118.584C97.9749 116.985 98.8745 116.098 99.5726 113.625C99.7894 111.133 99.8308 108.697 99.8047 106.196C99.8184 105.293 99.8321 104.39 99.8462 103.46C99.8835 100.586 99.8798 97.7146 99.875 94.8408C99.8931 92.8883 99.9139 90.9358 99.9375 88.9834C99.9944 84.2057 99.9958 79.4325 100 74.6533C91.42 74.6533 82.84 74.6533 74 74.6533C74.33 73.9933 74.66 73.3333 75 72.6533C75.73 72.6952 76.46 72.7371 77.2122 72.7803C82.9963 73.0692 88.7672 73.2213 94.5586 73.1377C95.6497 73.1245 96.7408 73.1113 97.865 73.0977C102.571 72.4307 105.749 70.4826 109.148 67.2236C113.205 63.5668 117.794 61.0205 122.5 58.2783C124.24 57.2506 125.98 56.222 127.719 55.1924C128.471 54.751 129.223 54.3097 129.998 53.855C131.695 52.8362 133.353 51.7514 135 50.6533Z" fill="#00B16A"/>
<g filter="url(#filter0_d_206_32)">
<path d="M135 50.6533C135 51.6433 135 52.6333 135 53.6533C132.74 55.377 130.525 56.8979 128.125 58.4033C126.745 59.2915 125.366 60.1808 123.988 61.0713C123.308 61.5075 122.629 61.9437 121.928 62.3931C118.55 64.6007 115.303 66.9888 112.051 69.376C110 70.6533 110 70.6533 106 71.6533C105.34 75.9433 104.68 80.2333 104 84.6533C103.34 84.6533 102.68 84.6533 102 84.6533C101.67 95.2133 101.34 105.773 101 116.653C100.34 116.323 99.68 115.993 99 115.653C99.33 102.123 99.66 88.5933 100 74.6533C91.42 74.6533 82.84 74.6533 74 74.6533C74.33 73.9933 74.66 73.3333 75 72.6533C75.73 72.6952 76.46 72.7371 77.2122 72.7803C82.9963 73.0692 88.7672 73.2213 94.5586 73.1377C95.6497 73.1245 96.7408 73.1113 97.865 73.0977C102.571 72.4307 105.749 70.4826 109.148 67.2236C113.205 63.5668 117.794 61.0205 122.5 58.2783C124.24 57.2506 125.98 56.222 127.719 55.1924C128.471 54.751 129.223 54.3097 129.998 53.855C131.695 52.8362 133.353 51.7514 135 50.6533Z" fill="#00B16A"/>
</g>
<path d="M104 80.6533C104.33 80.6533 104.66 80.6533 105 80.6533C105 87.2533 105 93.8533 105 100.653C103.68 100.653 102.36 100.653 101 100.653C101 94.7133 101 88.7733 101 82.6533C101.33 83.3133 101.66 83.9733 102 84.6533C102.66 84.6533 103.32 84.6533 104 84.6533C104 83.3333 104 82.0133 104 80.6533Z" fill="#00B16A"/>
<g filter="url(#filter1_d_206_32)">
<path d="M108.001 67.6533C108.331 68.6433 108.661 69.6333 109.001 70.6533C108.011 70.9833 107.021 71.3133 106.001 71.6533C105.341 75.9433 104.681 80.2333 104.001 84.6533C103.341 84.6533 102.681 84.6533 102.001 84.6533C100.126 80.9037 100.185 76.7119 101.001 72.6533C103.147 70.2228 105.087 69.2142 108.001 67.6533Z" fill="#00B16A"/>
</g>
<path d="M0 383.653C11.55 383.653 23.1 383.653 35 383.653C34.34 385.633 33.68 387.613 33 389.653C32.505 388.663 32.505 388.663 32 387.653C31.34 387.653 30.68 387.653 30 387.653C30 386.993 30 386.333 30 385.653C15.15 385.158 15.15 385.158 0 384.653C0 384.323 0 383.993 0 383.653Z" fill="#E8E9EB"/>
<path d="M577 379.653C577.66 379.653 578.32 379.653 579 379.653C579.495 381.633 579.495 381.633 580 383.653C569.11 383.653 558.22 383.653 547 383.653C547 383.323 547 382.993 547 382.653C561.85 382.158 561.85 382.158 577 381.653C577 380.993 577 380.333 577 379.653Z" fill="#253144"/>
<path d="M108 67.6533C108.33 68.6433 108.66 69.6333 109 70.6533C108.01 70.9833 107.02 71.3133 106 71.6533C105.835 72.3133 105.67 72.9733 105.5 73.6533C105.335 74.3133 105.17 74.9733 105 75.6533C104.01 75.9833 103.02 76.3133 102 76.6533C101.67 75.3333 101.34 74.0133 101 72.6533C103.31 71.0033 105.62 69.3533 108 67.6533Z" fill="#00B16A"/>
<path d="M109 44.6533C109.99 44.9833 110.98 45.3133 112 45.6533C110.35 47.6333 108.7 49.6133 107 51.6533C105.68 51.3233 104.36 50.9933 103 50.6533C105 48.6533 107 46.6533 109 44.6533Z" fill="#1D2E42"/>
<path d="M369 411.653C369.66 411.983 370.32 412.313 371 412.653C367.509 416.658 365.35 418.28 360 418.653C362.744 415.706 365.383 413.462 369 411.653Z" fill="#273648"/>
<path d="M116 64.6533C116 65.3133 116 65.9733 116 66.6533C113.69 67.9733 111.38 69.2933 109 70.6533C109 69.3333 109 68.0133 109 66.6533C112 64.6533 112 64.6533 116 64.6533Z" fill="#00B16A"/>
<path d="M151 10.6533C151.66 11.6433 152.32 12.6333 153 13.6533C150.69 14.9733 148.38 16.2933 146 17.6533C146 16.6633 146 15.6733 146 14.6533C148.5 12.4658 148.5 12.4658 151 10.6533Z" fill="#213043"/>
<path d="M166.75 0.34082C167.822 0.443945 168.895 0.54707 170 0.65332C170 0.98332 170 1.31332 170 1.65332C169.278 1.7152 168.556 1.77707 167.812 1.84082C164.153 2.89789 162.508 4.85882 160 7.65332C159.67 6.99332 159.34 6.33332 159 5.65332C161.384 1.83901 162.135 0.725439 166.75 0.34082Z" fill="#1B2A3D"/>
<path d="M82 66.6533C82.66 66.9833 83.32 67.3133 84 67.6533C84 68.9733 84 70.2933 84 71.6533C81.625 72.2783 81.625 72.2783 79 72.6533C78.34 71.9933 77.68 71.3333 77 70.6533C78.65 69.3333 80.3 68.0133 82 66.6533Z" fill="#1C2E42"/>
<path d="M497 328.653C499.007 332.274 501.004 335.9 503 339.528C503.572 340.56 504.145 341.593 504.734 342.657C505.546 344.136 505.546 344.136 506.375 345.645C506.878 346.556 507.38 347.467 507.898 348.406C509 350.653 509 350.653 509 352.653C508.196 352.753 507.392 352.853 506.563 352.957C483.169 355.9 460.57 359.648 438 366.653C437.035 366.952 436.07 367.251 435.076 367.56C394.03 380.442 355.387 400.113 323 428.653C322.149 429.393 321.298 430.133 320.422 430.895C318.608 432.474 316.801 434.059 315 435.653C315 423.005 335.39 406.049 343.812 397.528C350.609 390.754 357.593 384.517 365.345 378.863C366.992 377.658 368.616 376.426 370.238 375.188C400.953 352.114 436.822 338.916 474 330.653C475.411 330.337 475.411 330.337 476.85 330.015C483.613 328.633 490.11 328.436 497 328.653Z" fill="#00B16A"/>
<path d="M321 423.653C321.99 424.973 322.98 426.293 324 427.653C319.545 431.613 319.545 431.613 315 435.653C315 432.021 315.955 430.906 318 427.966C318.557 427.158 319.114 426.349 319.688 425.517C320.121 424.902 320.554 424.287 321 423.653Z" fill="#00B16A"/>
<path d="M497 329.653C499.865 333.063 501.347 336.56 503 340.653C502.01 341.148 502.01 341.148 501 341.653C497.811 337.467 496.496 334.948 497 329.653Z" fill="#00B16A"/>
<path d="M352 389.653C352.33 390.643 352.66 391.633 353 392.653C351.68 393.643 350.36 394.633 349 395.653C349 392.653 349 392.653 350.5 390.966C351.243 390.316 351.243 390.316 352 389.653Z" fill="#00B16A"/>
<path d="M332 409.653C332.66 410.643 333.32 411.633 334 412.653C332.68 413.973 331.36 415.293 330 416.653C329.01 416.323 328.02 415.993 327 415.653C328.65 413.673 330.3 411.693 332 409.653Z" fill="#00B16A"/>
<path d="M240 40.6533C240.99 40.9833 241.98 41.3133 243 41.6533C244.188 45.2158 244.188 45.2158 245 48.6533C242 47.6533 242 47.6533 240.312 44.5908C239.879 43.6214 239.446 42.6521 239 41.6533C239.33 41.3233 239.66 40.9933 240 40.6533Z" fill="#334151"/>
<path d="M260 426.653C261.65 428.303 263.3 429.953 265 431.653C264.67 432.313 264.34 432.973 264 433.653C262.35 432.333 260.7 431.013 259 429.653C259.33 428.663 259.66 427.673 260 426.653Z" fill="#00B16A"/>
<path d="M566 358.653C567.32 359.973 568.64 361.293 570 362.653C569.34 363.973 568.68 365.293 568 366.653C566.235 363.565 566 362.42 566 358.653Z" fill="#2A374A"/>
<defs>
<filter id="filter0_d_206_32" x="70" y="50.6533" width="69" height="74" filterUnits="userSpaceOnUse" color-interpolation-filters="sRGB">
<feFlood flood-opacity="0" result="BackgroundImageFix"/>
<feColorMatrix in="SourceAlpha" type="matrix" values="0 0 0 0 0 0 0 0 0 0 0 0 0 0 0 0 0 0 127 0" result="hardAlpha"/>
<feOffset dy="4"/>
<feGaussianBlur stdDeviation="2"/>
<feComposite in2="hardAlpha" operator="out"/>
<feColorMatrix type="matrix" values="0 0 0 0 0 0 0 0 0 0 0 0 0 0 0 0 0 0 0.25 0"/>
<feBlend mode="normal" in2="BackgroundImageFix" result="effect1_dropShadow_206_32"/>
<feBlend mode="normal" in="SourceGraphic" in2="effect1_dropShadow_206_32" result="shape"/>
</filter>
<filter id="filter1_d_206_32" x="96.46" y="67.6533" width="16.541" height="25" filterUnits="userSpaceOnUse" color-interpolation-filters="sRGB">
<feFlood flood-opacity="0" result="BackgroundImageFix"/>
<feColorMatrix in="SourceAlpha" type="matrix" values="0 0 0 0 0 0 0 0 0 0 0 0 0 0 0 0 0 0 127 0" result="hardAlpha"/>
<feOffset dy="4"/>
<feGaussianBlur stdDeviation="2"/>
<feComposite in2="hardAlpha" operator="out"/>
<feColorMatrix type="matrix" values="0 0 0 0 0 0 0 0 0 0 0 0 0 0 0 0 0 0 0.25 0"/>
<feBlend mode="normal" in2="BackgroundImageFix" result="effect1_dropShadow_206_32"/>
<feBlend mode="normal" in="SourceGraphic" in2="effect1_dropShadow_206_32" result="shape"/>
</filter>
</defs>
</svg>
